<mxfile host="app.diagrams.net" agent="Mozilla/5.0 (Windows NT 10.0; Win64; x64) AppleWebKit/537.36 (KHTML, like Gecko) Chrome/138.0.0.0 Safari/537.36 Edg/138.0.0.0" version="28.0.6">
  <diagram name="Página-1" id="mgVt0Ck4sowz0H74DGnP">
    <mxGraphModel dx="2885" dy="1116" grid="1" gridSize="10" guides="1" tooltips="1" connect="1" arrows="1" fold="1" page="1" pageScale="1" pageWidth="827" pageHeight="1169" math="0" shadow="0">
      <root>
        <mxCell id="0" />
        <mxCell id="1" parent="0" />
        <mxCell id="GZkJusN8BGpQduWCcCKn-1" value="Usuário" style="rounded=0;whiteSpace=wrap;html=1;" parent="1" vertex="1">
          <mxGeometry x="-100.00000000000004" y="310" width="120" height="60" as="geometry" />
        </mxCell>
        <mxCell id="GZkJusN8BGpQduWCcCKn-2" value="senha" style="ellipse;whiteSpace=wrap;html=1;" parent="1" vertex="1">
          <mxGeometry x="55.99999999999994" y="240" width="60" height="40" as="geometry" />
        </mxCell>
        <mxCell id="GZkJusN8BGpQduWCcCKn-3" value="" style="endArrow=none;html=1;rounded=0;entryX=0;entryY=1;entryDx=0;entryDy=0;exitX=1;exitY=0;exitDx=0;exitDy=0;" parent="1" source="GZkJusN8BGpQduWCcCKn-1" target="GZkJusN8BGpQduWCcCKn-2" edge="1">
          <mxGeometry width="50" height="50" relative="1" as="geometry">
            <mxPoint x="109.91999999999996" y="450" as="sourcePoint" />
            <mxPoint x="159.91999999999996" y="400" as="targetPoint" />
          </mxGeometry>
        </mxCell>
        <mxCell id="GZkJusN8BGpQduWCcCKn-4" value="email" style="ellipse;whiteSpace=wrap;html=1;" parent="1" vertex="1">
          <mxGeometry x="-30.000000000000043" y="230" width="60" height="40" as="geometry" />
        </mxCell>
        <mxCell id="GZkJusN8BGpQduWCcCKn-5" value="" style="endArrow=none;html=1;rounded=0;entryX=0.5;entryY=1;entryDx=0;entryDy=0;exitX=0.75;exitY=0;exitDx=0;exitDy=0;" parent="1" source="GZkJusN8BGpQduWCcCKn-1" target="GZkJusN8BGpQduWCcCKn-4" edge="1">
          <mxGeometry width="50" height="50" relative="1" as="geometry">
            <mxPoint x="-10.080000000000041" y="310" as="sourcePoint" />
            <mxPoint x="9.919999999999959" y="290" as="targetPoint" />
          </mxGeometry>
        </mxCell>
        <mxCell id="GZkJusN8BGpQduWCcCKn-6" value="Debitos" style="rounded=0;whiteSpace=wrap;html=1;" parent="1" vertex="1">
          <mxGeometry x="46" y="695" width="120" height="60" as="geometry" />
        </mxCell>
        <mxCell id="GZkJusN8BGpQduWCcCKn-7" value="Desc Débito" style="ellipse;whiteSpace=wrap;html=1;" parent="1" vertex="1">
          <mxGeometry x="-4" y="775" width="60" height="40" as="geometry" />
        </mxCell>
        <mxCell id="GZkJusN8BGpQduWCcCKn-8" value="Valor" style="ellipse;whiteSpace=wrap;html=1;" parent="1" vertex="1">
          <mxGeometry x="86" y="785" width="60" height="40" as="geometry" />
        </mxCell>
        <mxCell id="GZkJusN8BGpQduWCcCKn-9" value="Vencimento&lt;div&gt;(dd/mm/aaaa)&lt;/div&gt;" style="ellipse;whiteSpace=wrap;html=1;" parent="1" vertex="1">
          <mxGeometry x="176" y="775" width="84" height="45" as="geometry" />
        </mxCell>
        <mxCell id="GZkJusN8BGpQduWCcCKn-12" value="&lt;u&gt;id usuário&lt;/u&gt;" style="ellipse;whiteSpace=wrap;html=1;" parent="1" vertex="1">
          <mxGeometry x="-210.84" y="240" width="60" height="40" as="geometry" />
        </mxCell>
        <mxCell id="GZkJusN8BGpQduWCcCKn-13" value="" style="endArrow=none;html=1;rounded=0;entryX=1;entryY=1;entryDx=0;entryDy=0;exitX=0;exitY=0;exitDx=0;exitDy=0;" parent="1" source="GZkJusN8BGpQduWCcCKn-1" target="GZkJusN8BGpQduWCcCKn-12" edge="1">
          <mxGeometry width="50" height="50" relative="1" as="geometry">
            <mxPoint x="-40.08000000000004" y="310" as="sourcePoint" />
            <mxPoint x="-149.99999999999997" y="288.96000000000004" as="targetPoint" />
          </mxGeometry>
        </mxCell>
        <mxCell id="GZkJusN8BGpQduWCcCKn-14" value="" style="endArrow=none;html=1;rounded=0;entryX=0;entryY=0.5;entryDx=0;entryDy=0;exitX=1;exitY=0.5;exitDx=0;exitDy=0;" parent="1" source="GZkJusN8BGpQduWCcCKn-15" target="GZkJusN8BGpQduWCcCKn-6" edge="1">
          <mxGeometry width="50" height="50" relative="1" as="geometry">
            <mxPoint x="36" y="675" as="sourcePoint" />
            <mxPoint x="6" y="655" as="targetPoint" />
          </mxGeometry>
        </mxCell>
        <mxCell id="GZkJusN8BGpQduWCcCKn-15" value="&lt;u&gt;id usuário&lt;/u&gt;" style="ellipse;whiteSpace=wrap;html=1;" parent="1" vertex="1">
          <mxGeometry x="-50" y="650" width="60" height="40" as="geometry" />
        </mxCell>
        <mxCell id="GZkJusN8BGpQduWCcCKn-17" value="" style="endArrow=none;html=1;rounded=0;exitX=0.25;exitY=1;exitDx=0;exitDy=0;" parent="1" source="GZkJusN8BGpQduWCcCKn-6" target="GZkJusN8BGpQduWCcCKn-7" edge="1">
          <mxGeometry width="50" height="50" relative="1" as="geometry">
            <mxPoint x="106" y="685" as="sourcePoint" />
            <mxPoint x="106" y="715" as="targetPoint" />
          </mxGeometry>
        </mxCell>
        <mxCell id="GZkJusN8BGpQduWCcCKn-20" value="" style="endArrow=none;html=1;rounded=0;entryX=0.5;entryY=0;entryDx=0;entryDy=0;exitX=0.5;exitY=1;exitDx=0;exitDy=0;" parent="1" source="GZkJusN8BGpQduWCcCKn-6" target="GZkJusN8BGpQduWCcCKn-8" edge="1">
          <mxGeometry width="50" height="50" relative="1" as="geometry">
            <mxPoint x="76" y="755" as="sourcePoint" />
            <mxPoint x="76" y="792" as="targetPoint" />
          </mxGeometry>
        </mxCell>
        <mxCell id="GZkJusN8BGpQduWCcCKn-21" value="" style="endArrow=none;html=1;rounded=0;exitX=0.75;exitY=1;exitDx=0;exitDy=0;entryX=0.5;entryY=0;entryDx=0;entryDy=0;" parent="1" source="GZkJusN8BGpQduWCcCKn-6" target="GZkJusN8BGpQduWCcCKn-9" edge="1">
          <mxGeometry width="50" height="50" relative="1" as="geometry">
            <mxPoint x="136" y="795" as="sourcePoint" />
            <mxPoint x="136" y="843" as="targetPoint" />
          </mxGeometry>
        </mxCell>
        <mxCell id="GZkJusN8BGpQduWCcCKn-24" value="Reservas" style="rounded=0;whiteSpace=wrap;html=1;" parent="1" vertex="1">
          <mxGeometry x="415.99999999999994" y="690" width="120" height="60" as="geometry" />
        </mxCell>
        <mxCell id="GZkJusN8BGpQduWCcCKn-25" value="Desc Reserva" style="ellipse;whiteSpace=wrap;html=1;" parent="1" vertex="1">
          <mxGeometry x="385.99999999999994" y="780" width="60" height="40" as="geometry" />
        </mxCell>
        <mxCell id="GZkJusN8BGpQduWCcCKn-26" value="" style="endArrow=none;html=1;rounded=0;exitX=0.25;exitY=1;exitDx=0;exitDy=0;" parent="1" source="GZkJusN8BGpQduWCcCKn-24" target="GZkJusN8BGpQduWCcCKn-25" edge="1">
          <mxGeometry width="50" height="50" relative="1" as="geometry">
            <mxPoint x="416.99999999999994" y="509" as="sourcePoint" />
            <mxPoint x="385.99999999999994" y="500" as="targetPoint" />
          </mxGeometry>
        </mxCell>
        <mxCell id="GZkJusN8BGpQduWCcCKn-27" value="Valor" style="ellipse;whiteSpace=wrap;html=1;" parent="1" vertex="1">
          <mxGeometry x="496" y="780" width="60" height="40" as="geometry" />
        </mxCell>
        <mxCell id="GZkJusN8BGpQduWCcCKn-28" value="" style="endArrow=none;html=1;rounded=0;entryX=0.5;entryY=0;entryDx=0;entryDy=0;exitX=0.75;exitY=1;exitDx=0;exitDy=0;" parent="1" source="GZkJusN8BGpQduWCcCKn-24" target="GZkJusN8BGpQduWCcCKn-27" edge="1">
          <mxGeometry width="50" height="50" relative="1" as="geometry">
            <mxPoint x="446" y="750" as="sourcePoint" />
            <mxPoint x="446" y="787" as="targetPoint" />
          </mxGeometry>
        </mxCell>
        <mxCell id="GZkJusN8BGpQduWCcCKn-29" value="Carência" style="ellipse;whiteSpace=wrap;html=1;" parent="1" vertex="1">
          <mxGeometry x="610" y="670" width="60" height="40" as="geometry" />
        </mxCell>
        <mxCell id="GZkJusN8BGpQduWCcCKn-30" value="" style="endArrow=none;html=1;rounded=0;exitX=0;exitY=0.5;exitDx=0;exitDy=0;entryX=1;entryY=0.5;entryDx=0;entryDy=0;" parent="1" source="GZkJusN8BGpQduWCcCKn-29" target="GZkJusN8BGpQduWCcCKn-24" edge="1">
          <mxGeometry width="50" height="50" relative="1" as="geometry">
            <mxPoint x="436.99999999999994" y="716" as="sourcePoint" />
            <mxPoint x="395.99999999999994" y="710" as="targetPoint" />
          </mxGeometry>
        </mxCell>
        <mxCell id="GZkJusN8BGpQduWCcCKn-31" value="&lt;u&gt;id usuário&lt;/u&gt;" style="ellipse;whiteSpace=wrap;html=1;" parent="1" vertex="1">
          <mxGeometry x="326" y="640" width="60" height="40" as="geometry" />
        </mxCell>
        <mxCell id="GZkJusN8BGpQduWCcCKn-32" value="" style="endArrow=none;html=1;rounded=0;exitX=1;exitY=0.5;exitDx=0;exitDy=0;entryX=0;entryY=0.5;entryDx=0;entryDy=0;" parent="1" source="GZkJusN8BGpQduWCcCKn-31" target="GZkJusN8BGpQduWCcCKn-24" edge="1">
          <mxGeometry width="50" height="50" relative="1" as="geometry">
            <mxPoint x="436.99999999999994" y="716" as="sourcePoint" />
            <mxPoint x="395.99999999999994" y="710" as="targetPoint" />
          </mxGeometry>
        </mxCell>
        <mxCell id="GZkJusN8BGpQduWCcCKn-33" value="Possui" style="rhombus;whiteSpace=wrap;html=1;" parent="1" vertex="1">
          <mxGeometry x="435.99999999999994" y="560" width="80" height="80" as="geometry" />
        </mxCell>
        <mxCell id="GZkJusN8BGpQduWCcCKn-34" value="" style="endArrow=none;html=1;rounded=0;exitX=1;exitY=0.5;exitDx=0;exitDy=0;entryX=0.5;entryY=0;entryDx=0;entryDy=0;" parent="1" source="GZkJusN8BGpQduWCcCKn-1" target="GZkJusN8BGpQduWCcCKn-33" edge="1">
          <mxGeometry width="50" height="50" relative="1" as="geometry">
            <mxPoint x="159.91999999999996" y="470" as="sourcePoint" />
            <mxPoint x="209.91999999999996" y="420" as="targetPoint" />
          </mxGeometry>
        </mxCell>
        <mxCell id="GZkJusN8BGpQduWCcCKn-36" value="" style="endArrow=none;html=1;rounded=0;exitX=0.5;exitY=1;exitDx=0;exitDy=0;entryX=0.5;entryY=0;entryDx=0;entryDy=0;" parent="1" source="GZkJusN8BGpQduWCcCKn-33" target="GZkJusN8BGpQduWCcCKn-24" edge="1">
          <mxGeometry width="50" height="50" relative="1" as="geometry">
            <mxPoint x="385.91999999999996" y="430" as="sourcePoint" />
            <mxPoint x="469.91999999999996" y="468" as="targetPoint" />
          </mxGeometry>
        </mxCell>
        <mxCell id="GZkJusN8BGpQduWCcCKn-37" value="1" style="text;html=1;align=center;verticalAlign=middle;whiteSpace=wrap;rounded=0;" parent="1" vertex="1">
          <mxGeometry x="445.99999999999994" y="536" width="60" height="30" as="geometry" />
        </mxCell>
        <mxCell id="GZkJusN8BGpQduWCcCKn-38" value="N" style="text;html=1;align=center;verticalAlign=middle;whiteSpace=wrap;rounded=0;" parent="1" vertex="1">
          <mxGeometry x="435.99999999999994" y="630" width="60" height="30" as="geometry" />
        </mxCell>
        <mxCell id="GZkJusN8BGpQduWCcCKn-39" value="Possui" style="rhombus;whiteSpace=wrap;html=1;" parent="1" vertex="1">
          <mxGeometry x="65.99999999999996" y="560" width="80" height="80" as="geometry" />
        </mxCell>
        <mxCell id="GZkJusN8BGpQduWCcCKn-40" value="" style="endArrow=none;html=1;rounded=0;entryX=0.5;entryY=0;entryDx=0;entryDy=0;exitX=0.75;exitY=1;exitDx=0;exitDy=0;" parent="1" source="GZkJusN8BGpQduWCcCKn-1" target="GZkJusN8BGpQduWCcCKn-39" edge="1">
          <mxGeometry width="50" height="50" relative="1" as="geometry">
            <mxPoint x="-60" y="450" as="sourcePoint" />
            <mxPoint x="49.91999999999996" y="340" as="targetPoint" />
          </mxGeometry>
        </mxCell>
        <mxCell id="GZkJusN8BGpQduWCcCKn-42" value="1" style="text;html=1;align=center;verticalAlign=middle;whiteSpace=wrap;rounded=0;" parent="1" vertex="1">
          <mxGeometry x="85.99999999999994" y="530" width="60" height="30" as="geometry" />
        </mxCell>
        <mxCell id="GZkJusN8BGpQduWCcCKn-43" value="N" style="text;html=1;align=center;verticalAlign=middle;whiteSpace=wrap;rounded=0;" parent="1" vertex="1">
          <mxGeometry x="86" y="630" width="60" height="30" as="geometry" />
        </mxCell>
        <mxCell id="GZkJusN8BGpQduWCcCKn-44" value="Notificação dia recebimento" style="rounded=0;whiteSpace=wrap;html=1;" parent="1" vertex="1">
          <mxGeometry x="-259.92" y="695" width="120" height="60" as="geometry" />
        </mxCell>
        <mxCell id="GZkJusN8BGpQduWCcCKn-45" value="dia do mês" style="ellipse;whiteSpace=wrap;html=1;" parent="1" vertex="1">
          <mxGeometry x="-230" y="805" width="60" height="40" as="geometry" />
        </mxCell>
        <mxCell id="GZkJusN8BGpQduWCcCKn-46" value="Hora" style="ellipse;whiteSpace=wrap;html=1;" parent="1" vertex="1">
          <mxGeometry x="-160" y="795" width="60" height="40" as="geometry" />
        </mxCell>
        <mxCell id="GZkJusN8BGpQduWCcCKn-47" value="&lt;u&gt;id usuário&lt;/u&gt;" style="ellipse;whiteSpace=wrap;html=1;" parent="1" vertex="1">
          <mxGeometry x="-304.92" y="795" width="60" height="40" as="geometry" />
        </mxCell>
        <mxCell id="GZkJusN8BGpQduWCcCKn-48" value="" style="endArrow=none;html=1;rounded=0;exitX=0.75;exitY=1;exitDx=0;exitDy=0;entryX=0.5;entryY=0;entryDx=0;entryDy=0;" parent="1" source="GZkJusN8BGpQduWCcCKn-44" target="GZkJusN8BGpQduWCcCKn-46" edge="1">
          <mxGeometry width="50" height="50" relative="1" as="geometry">
            <mxPoint x="-69.92000000000002" y="655" as="sourcePoint" />
            <mxPoint x="120.08000000000006" y="705" as="targetPoint" />
          </mxGeometry>
        </mxCell>
        <mxCell id="GZkJusN8BGpQduWCcCKn-49" value="" style="endArrow=none;html=1;rounded=0;exitX=0.5;exitY=1;exitDx=0;exitDy=0;" parent="1" source="GZkJusN8BGpQduWCcCKn-44" target="GZkJusN8BGpQduWCcCKn-45" edge="1">
          <mxGeometry width="50" height="50" relative="1" as="geometry">
            <mxPoint x="-229.92000000000002" y="775" as="sourcePoint" />
            <mxPoint x="-200.92000000000002" y="801" as="targetPoint" />
          </mxGeometry>
        </mxCell>
        <mxCell id="GZkJusN8BGpQduWCcCKn-50" value="" style="endArrow=none;html=1;rounded=0;exitX=0.25;exitY=1;exitDx=0;exitDy=0;entryX=0.5;entryY=0;entryDx=0;entryDy=0;" parent="1" source="GZkJusN8BGpQduWCcCKn-44" target="GZkJusN8BGpQduWCcCKn-47" edge="1">
          <mxGeometry width="50" height="50" relative="1" as="geometry">
            <mxPoint x="-289.92" y="785" as="sourcePoint" />
            <mxPoint x="-289.92" y="815" as="targetPoint" />
          </mxGeometry>
        </mxCell>
        <mxCell id="GZkJusN8BGpQduWCcCKn-51" value="Notificação controle do saldo" style="rounded=0;whiteSpace=wrap;html=1;" parent="1" vertex="1">
          <mxGeometry x="-539.92" y="695" width="120" height="60" as="geometry" />
        </mxCell>
        <mxCell id="GZkJusN8BGpQduWCcCKn-52" value="dom" style="ellipse;whiteSpace=wrap;html=1;" parent="1" vertex="1">
          <mxGeometry x="-590" y="845" width="29.92" height="25" as="geometry" />
        </mxCell>
        <mxCell id="GZkJusN8BGpQduWCcCKn-53" value="Hora" style="ellipse;whiteSpace=wrap;html=1;" parent="1" vertex="1">
          <mxGeometry x="-424.92" y="775" width="60" height="40" as="geometry" />
        </mxCell>
        <mxCell id="GZkJusN8BGpQduWCcCKn-54" value="&lt;u&gt;id usuário&lt;/u&gt;" style="ellipse;whiteSpace=wrap;html=1;" parent="1" vertex="1">
          <mxGeometry x="-594.92" y="775" width="60" height="40" as="geometry" />
        </mxCell>
        <mxCell id="GZkJusN8BGpQduWCcCKn-55" value="" style="endArrow=none;html=1;rounded=0;exitX=0.75;exitY=1;exitDx=0;exitDy=0;entryX=0;entryY=0;entryDx=0;entryDy=0;" parent="1" target="GZkJusN8BGpQduWCcCKn-53" edge="1">
          <mxGeometry width="50" height="50" relative="1" as="geometry">
            <mxPoint x="-444.92" y="755" as="sourcePoint" />
            <mxPoint x="-64.92" y="705" as="targetPoint" />
          </mxGeometry>
        </mxCell>
        <mxCell id="GZkJusN8BGpQduWCcCKn-56" value="" style="endArrow=none;html=1;rounded=0;exitX=0.5;exitY=1;exitDx=0;exitDy=0;" parent="1" source="GZkJusN8BGpQduWCcCKn-51" target="GZkJusN8BGpQduWCcCKn-52" edge="1">
          <mxGeometry width="50" height="50" relative="1" as="geometry">
            <mxPoint x="-474.92" y="755" as="sourcePoint" />
            <mxPoint x="-385.92" y="801" as="targetPoint" />
          </mxGeometry>
        </mxCell>
        <mxCell id="GZkJusN8BGpQduWCcCKn-57" value="" style="endArrow=none;html=1;rounded=0;exitX=0.25;exitY=1;exitDx=0;exitDy=0;entryX=1;entryY=0;entryDx=0;entryDy=0;" parent="1" target="GZkJusN8BGpQduWCcCKn-54" edge="1">
          <mxGeometry width="50" height="50" relative="1" as="geometry">
            <mxPoint x="-504.92" y="755" as="sourcePoint" />
            <mxPoint x="-474.92" y="815" as="targetPoint" />
          </mxGeometry>
        </mxCell>
        <mxCell id="GZkJusN8BGpQduWCcCKn-58" value="Configura" style="rhombus;whiteSpace=wrap;html=1;" parent="1" vertex="1">
          <mxGeometry x="-239.92000000000002" y="560" width="80" height="80" as="geometry" />
        </mxCell>
        <mxCell id="GZkJusN8BGpQduWCcCKn-59" value="Configura" style="rhombus;whiteSpace=wrap;html=1;" parent="1" vertex="1">
          <mxGeometry x="-512.42" y="570" width="75" height="70" as="geometry" />
        </mxCell>
        <mxCell id="GZkJusN8BGpQduWCcCKn-60" value="" style="endArrow=none;html=1;rounded=0;exitX=0.25;exitY=1;exitDx=0;exitDy=0;entryX=0.5;entryY=0;entryDx=0;entryDy=0;" parent="1" source="GZkJusN8BGpQduWCcCKn-1" target="GZkJusN8BGpQduWCcCKn-58" edge="1">
          <mxGeometry width="50" height="50" relative="1" as="geometry">
            <mxPoint y="390" as="sourcePoint" />
            <mxPoint x="73" y="450" as="targetPoint" />
          </mxGeometry>
        </mxCell>
        <mxCell id="GZkJusN8BGpQduWCcCKn-61" value="" style="endArrow=none;html=1;rounded=0;exitX=0.5;exitY=1;exitDx=0;exitDy=0;entryX=0.5;entryY=0;entryDx=0;entryDy=0;" parent="1" source="GZkJusN8BGpQduWCcCKn-58" target="GZkJusN8BGpQduWCcCKn-44" edge="1">
          <mxGeometry width="50" height="50" relative="1" as="geometry">
            <mxPoint x="-173" y="545" as="sourcePoint" />
            <mxPoint x="-214" y="613" as="targetPoint" />
          </mxGeometry>
        </mxCell>
        <mxCell id="GZkJusN8BGpQduWCcCKn-62" value="" style="endArrow=none;html=1;rounded=0;exitX=0;exitY=0.5;exitDx=0;exitDy=0;entryX=0.5;entryY=0;entryDx=0;entryDy=0;" parent="1" source="GZkJusN8BGpQduWCcCKn-1" target="GZkJusN8BGpQduWCcCKn-59" edge="1">
          <mxGeometry width="50" height="50" relative="1" as="geometry">
            <mxPoint x="-110" y="510" as="sourcePoint" />
            <mxPoint x="-106" y="570" as="targetPoint" />
          </mxGeometry>
        </mxCell>
        <mxCell id="GZkJusN8BGpQduWCcCKn-63" value="" style="endArrow=none;html=1;rounded=0;exitX=0.547;exitY=-0.022;exitDx=0;exitDy=0;entryX=0.5;entryY=1;entryDx=0;entryDy=0;exitPerimeter=0;" parent="1" source="GZkJusN8BGpQduWCcCKn-51" target="GZkJusN8BGpQduWCcCKn-59" edge="1">
          <mxGeometry width="50" height="50" relative="1" as="geometry">
            <mxPoint x="-172.92000000000002" y="350" as="sourcePoint" />
            <mxPoint x="-294.92" y="360" as="targetPoint" />
          </mxGeometry>
        </mxCell>
        <mxCell id="GZkJusN8BGpQduWCcCKn-65" value="1" style="text;html=1;align=center;verticalAlign=middle;whiteSpace=wrap;rounded=0;" parent="1" vertex="1">
          <mxGeometry x="-210.84000000000003" y="540" width="60" height="30" as="geometry" />
        </mxCell>
        <mxCell id="GZkJusN8BGpQduWCcCKn-66" value="1" style="text;html=1;align=center;verticalAlign=middle;whiteSpace=wrap;rounded=0;" parent="1" vertex="1">
          <mxGeometry x="-220" y="625" width="60" height="30" as="geometry" />
        </mxCell>
        <mxCell id="GZkJusN8BGpQduWCcCKn-67" value="1" style="text;html=1;align=center;verticalAlign=middle;whiteSpace=wrap;rounded=0;" parent="1" vertex="1">
          <mxGeometry x="-512.42" y="630" width="60" height="30" as="geometry" />
        </mxCell>
        <mxCell id="GZkJusN8BGpQduWCcCKn-68" value="1" style="text;html=1;align=center;verticalAlign=middle;whiteSpace=wrap;rounded=0;" parent="1" vertex="1">
          <mxGeometry x="-509.92" y="540" width="60" height="30" as="geometry" />
        </mxCell>
        <mxCell id="GZkJusN8BGpQduWCcCKn-69" value="" style="endArrow=none;html=1;rounded=0;exitX=0.5;exitY=1;exitDx=0;exitDy=0;entryX=0.5;entryY=0;entryDx=0;entryDy=0;" parent="1" source="GZkJusN8BGpQduWCcCKn-39" target="GZkJusN8BGpQduWCcCKn-6" edge="1">
          <mxGeometry width="50" height="50" relative="1" as="geometry">
            <mxPoint x="-14.079999999999927" y="720" as="sourcePoint" />
            <mxPoint x="6" y="680" as="targetPoint" />
          </mxGeometry>
        </mxCell>
        <mxCell id="dG-878dSHfWD0G2dkLnb-2" value="nome" style="ellipse;whiteSpace=wrap;html=1;" parent="1" vertex="1">
          <mxGeometry x="-120" y="230" width="60" height="40" as="geometry" />
        </mxCell>
        <mxCell id="dG-878dSHfWD0G2dkLnb-4" value="" style="endArrow=none;html=1;rounded=0;entryX=0.5;entryY=1;entryDx=0;entryDy=0;exitX=0.25;exitY=0;exitDx=0;exitDy=0;" parent="1" source="GZkJusN8BGpQduWCcCKn-1" target="dG-878dSHfWD0G2dkLnb-2" edge="1">
          <mxGeometry width="50" height="50" relative="1" as="geometry">
            <mxPoint x="-20" y="322" as="sourcePoint" />
            <mxPoint x="17" y="280" as="targetPoint" />
          </mxGeometry>
        </mxCell>
        <mxCell id="6vvsSDO2jYM5AOanYgLm-4" value="&lt;u&gt;id débito&lt;/u&gt;" style="ellipse;whiteSpace=wrap;html=1;" parent="1" vertex="1">
          <mxGeometry x="-64" y="715" width="60" height="40" as="geometry" />
        </mxCell>
        <mxCell id="6vvsSDO2jYM5AOanYgLm-5" value="" style="endArrow=none;html=1;rounded=0;entryX=0;entryY=0.75;entryDx=0;entryDy=0;exitX=1;exitY=0.5;exitDx=0;exitDy=0;" parent="1" source="6vvsSDO2jYM5AOanYgLm-4" target="GZkJusN8BGpQduWCcCKn-6" edge="1">
          <mxGeometry width="50" height="50" relative="1" as="geometry">
            <mxPoint x="30" y="730" as="sourcePoint" />
            <mxPoint x="66" y="785" as="targetPoint" />
          </mxGeometry>
        </mxCell>
        <mxCell id="6vvsSDO2jYM5AOanYgLm-7" value="&lt;u&gt;id notificação controle&lt;/u&gt;" style="ellipse;whiteSpace=wrap;html=1;" parent="1" vertex="1">
          <mxGeometry x="-664.92" y="687.5" width="70" height="55" as="geometry" />
        </mxCell>
        <mxCell id="6vvsSDO2jYM5AOanYgLm-8" value="" style="endArrow=none;html=1;rounded=0;exitX=0;exitY=0.5;exitDx=0;exitDy=0;entryX=0.989;entryY=0.585;entryDx=0;entryDy=0;entryPerimeter=0;" parent="1" source="GZkJusN8BGpQduWCcCKn-51" target="6vvsSDO2jYM5AOanYgLm-7" edge="1">
          <mxGeometry width="50" height="50" relative="1" as="geometry">
            <mxPoint x="-500.92" y="780" as="sourcePoint" />
            <mxPoint x="-540" y="806" as="targetPoint" />
          </mxGeometry>
        </mxCell>
        <mxCell id="6vvsSDO2jYM5AOanYgLm-9" value="&lt;u&gt;id notificação recebimento&lt;/u&gt;" style="ellipse;whiteSpace=wrap;html=1;" parent="1" vertex="1">
          <mxGeometry x="-380" y="680" width="75.08" height="62.5" as="geometry" />
        </mxCell>
        <mxCell id="6vvsSDO2jYM5AOanYgLm-10" value="" style="endArrow=none;html=1;rounded=0;exitX=0;exitY=0.5;exitDx=0;exitDy=0;entryX=0.989;entryY=0.585;entryDx=0;entryDy=0;entryPerimeter=0;" parent="1" source="GZkJusN8BGpQduWCcCKn-44" target="6vvsSDO2jYM5AOanYgLm-9" edge="1">
          <mxGeometry width="50" height="50" relative="1" as="geometry">
            <mxPoint x="-259.9200000000001" y="720" as="sourcePoint" />
            <mxPoint x="-259.9200000000001" y="801" as="targetPoint" />
          </mxGeometry>
        </mxCell>
        <mxCell id="6vvsSDO2jYM5AOanYgLm-11" value="&lt;u&gt;id reserva&lt;/u&gt;" style="ellipse;whiteSpace=wrap;html=1;" parent="1" vertex="1">
          <mxGeometry x="310" y="710" width="60" height="40" as="geometry" />
        </mxCell>
        <mxCell id="6vvsSDO2jYM5AOanYgLm-12" value="" style="endArrow=none;html=1;rounded=0;entryX=0;entryY=0.75;entryDx=0;entryDy=0;exitX=1;exitY=0.5;exitDx=0;exitDy=0;" parent="1" source="6vvsSDO2jYM5AOanYgLm-11" target="GZkJusN8BGpQduWCcCKn-24" edge="1">
          <mxGeometry width="50" height="50" relative="1" as="geometry">
            <mxPoint x="404" y="725" as="sourcePoint" />
            <mxPoint x="420" y="735" as="targetPoint" />
          </mxGeometry>
        </mxCell>
        <mxCell id="6vvsSDO2jYM5AOanYgLm-14" value="Repetições" style="ellipse;whiteSpace=wrap;html=1;" parent="1" vertex="1">
          <mxGeometry x="220" y="695" width="70" height="40" as="geometry" />
        </mxCell>
        <mxCell id="6vvsSDO2jYM5AOanYgLm-15" value="" style="endArrow=none;html=1;rounded=0;exitX=1;exitY=0.5;exitDx=0;exitDy=0;entryX=0;entryY=0.5;entryDx=0;entryDy=0;" parent="1" source="GZkJusN8BGpQduWCcCKn-6" target="6vvsSDO2jYM5AOanYgLm-14" edge="1">
          <mxGeometry width="50" height="50" relative="1" as="geometry">
            <mxPoint x="170" y="775" as="sourcePoint" />
            <mxPoint x="214" y="720" as="targetPoint" />
          </mxGeometry>
        </mxCell>
        <mxCell id="6vvsSDO2jYM5AOanYgLm-18" value="mês" style="ellipse;whiteSpace=wrap;html=1;" parent="1" vertex="1">
          <mxGeometry x="600" y="740" width="60" height="40" as="geometry" />
        </mxCell>
        <mxCell id="6vvsSDO2jYM5AOanYgLm-19" value="" style="endArrow=none;html=1;rounded=0;entryX=0;entryY=0;entryDx=0;entryDy=0;exitX=1;exitY=0.75;exitDx=0;exitDy=0;" parent="1" source="GZkJusN8BGpQduWCcCKn-24" target="6vvsSDO2jYM5AOanYgLm-18" edge="1">
          <mxGeometry width="50" height="50" relative="1" as="geometry">
            <mxPoint x="500" y="750" as="sourcePoint" />
            <mxPoint x="520" y="780" as="targetPoint" />
          </mxGeometry>
        </mxCell>
        <mxCell id="6vvsSDO2jYM5AOanYgLm-20" value="seg" style="ellipse;whiteSpace=wrap;html=1;" parent="1" vertex="1">
          <mxGeometry x="-560.08" y="845" width="29.92" height="25" as="geometry" />
        </mxCell>
        <mxCell id="6vvsSDO2jYM5AOanYgLm-21" value="ter" style="ellipse;whiteSpace=wrap;html=1;" parent="1" vertex="1">
          <mxGeometry x="-530.16" y="845" width="29.92" height="25" as="geometry" />
        </mxCell>
        <mxCell id="6vvsSDO2jYM5AOanYgLm-22" value="qua" style="ellipse;whiteSpace=wrap;html=1;" parent="1" vertex="1">
          <mxGeometry x="-500.24" y="845" width="29.92" height="25" as="geometry" />
        </mxCell>
        <mxCell id="6vvsSDO2jYM5AOanYgLm-23" value="qui" style="ellipse;whiteSpace=wrap;html=1;" parent="1" vertex="1">
          <mxGeometry x="-470.32" y="845" width="29.92" height="25" as="geometry" />
        </mxCell>
        <mxCell id="6vvsSDO2jYM5AOanYgLm-24" value="sex" style="ellipse;whiteSpace=wrap;html=1;" parent="1" vertex="1">
          <mxGeometry x="-440.4" y="845" width="29.92" height="25" as="geometry" />
        </mxCell>
        <mxCell id="6vvsSDO2jYM5AOanYgLm-25" value="sab" style="ellipse;whiteSpace=wrap;html=1;" parent="1" vertex="1">
          <mxGeometry x="-410.48" y="845" width="29.92" height="25" as="geometry" />
        </mxCell>
        <mxCell id="6vvsSDO2jYM5AOanYgLm-26" value="" style="endArrow=none;html=1;rounded=0;entryX=0.5;entryY=0;entryDx=0;entryDy=0;" parent="1" target="6vvsSDO2jYM5AOanYgLm-20" edge="1">
          <mxGeometry width="50" height="50" relative="1" as="geometry">
            <mxPoint x="-480" y="755" as="sourcePoint" />
            <mxPoint x="-510" y="913" as="targetPoint" />
          </mxGeometry>
        </mxCell>
        <mxCell id="6vvsSDO2jYM5AOanYgLm-27" value="" style="endArrow=none;html=1;rounded=0;exitX=0.532;exitY=0.987;exitDx=0;exitDy=0;entryX=0.615;entryY=0.008;entryDx=0;entryDy=0;exitPerimeter=0;entryPerimeter=0;" parent="1" source="GZkJusN8BGpQduWCcCKn-51" target="6vvsSDO2jYM5AOanYgLm-21" edge="1">
          <mxGeometry width="50" height="50" relative="1" as="geometry">
            <mxPoint x="-449" y="850" as="sourcePoint" />
            <mxPoint x="-520" y="940" as="targetPoint" />
          </mxGeometry>
        </mxCell>
        <mxCell id="6vvsSDO2jYM5AOanYgLm-28" value="" style="endArrow=none;html=1;rounded=0;entryX=0.5;entryY=0;entryDx=0;entryDy=0;" parent="1" target="6vvsSDO2jYM5AOanYgLm-22" edge="1">
          <mxGeometry width="50" height="50" relative="1" as="geometry">
            <mxPoint x="-480" y="755" as="sourcePoint" />
            <mxPoint x="-470" y="921" as="targetPoint" />
          </mxGeometry>
        </mxCell>
        <mxCell id="6vvsSDO2jYM5AOanYgLm-29" value="" style="endArrow=none;html=1;rounded=0;entryX=0.5;entryY=0;entryDx=0;entryDy=0;exitX=0.5;exitY=1;exitDx=0;exitDy=0;" parent="1" source="GZkJusN8BGpQduWCcCKn-51" target="6vvsSDO2jYM5AOanYgLm-23" edge="1">
          <mxGeometry width="50" height="50" relative="1" as="geometry">
            <mxPoint x="-470" y="760" as="sourcePoint" />
            <mxPoint x="-470" y="875" as="targetPoint" />
          </mxGeometry>
        </mxCell>
        <mxCell id="6vvsSDO2jYM5AOanYgLm-31" value="" style="endArrow=none;html=1;rounded=0;entryX=0.5;entryY=0;entryDx=0;entryDy=0;exitX=0.5;exitY=1;exitDx=0;exitDy=0;" parent="1" source="GZkJusN8BGpQduWCcCKn-51" target="6vvsSDO2jYM5AOanYgLm-24" edge="1">
          <mxGeometry width="50" height="50" relative="1" as="geometry">
            <mxPoint x="-450" y="860" as="sourcePoint" />
            <mxPoint x="-440" y="951" as="targetPoint" />
          </mxGeometry>
        </mxCell>
        <mxCell id="6vvsSDO2jYM5AOanYgLm-32" value="" style="endArrow=none;html=1;rounded=0;entryX=0.5;entryY=0;entryDx=0;entryDy=0;exitX=0.5;exitY=1;exitDx=0;exitDy=0;" parent="1" source="GZkJusN8BGpQduWCcCKn-51" target="6vvsSDO2jYM5AOanYgLm-25" edge="1">
          <mxGeometry width="50" height="50" relative="1" as="geometry">
            <mxPoint x="-470" y="760" as="sourcePoint" />
            <mxPoint x="-356" y="951" as="targetPoint" />
          </mxGeometry>
        </mxCell>
      </root>
    </mxGraphModel>
  </diagram>
</mxfile>
